<svg id="Calque_2" data-name="Calque 2" xmlns="http://www.w3.org/2000/svg" viewBox="0 0 200 200">
    <defs>
        <style>
            .cls-1 {
                fill:#101820;
            }
        </style>
    </defs>
    <title>favicon</title>
    <rect width="100%" height="100%" fill="white"/>
    <polygon class="cls-1" points="51.23 67.89 99.97 96.03 146.91 67.89 51.23 67.89"/>
    <polygon class="cls-1" points="96.58 158.29 96.58 101.97 47.81 73.82 96.58 158.29"/>
    <polygon class="cls-1" points="100 32.9 51.23 61.05 148.77 61.05 100 32.9"/>
    <polygon class="cls-1" points="41.89 133.55 90.66 161.71 41.89 77.24 41.89 133.55"/>
    <polygon class="cls-1" points="103.42 101.94 103.42 158.29 153.17 72.11 103.42 101.94"/>
    <polygon class="cls-1" points="158.11 133.55 158.11 77.24 109.34 161.71 158.11 133.55"/>
    <path class="cls-1" d="M0,0V200H200V0ZM165,137.5,101.71,174h0L100,175l-1.68-1h0L35.05,137.5v-75l1.71-1h0L100,25l63.24,36.51h0l1.7,1Z"/>
</svg>
